<?xml version="1.0" ?><svg id="Layer_1" style="enable-background:new 0 0 120 120;" version="1.1" viewBox="0 0 120 120" xml:space="preserve" xmlns="http://www.w3.org/2000/svg" xmlns:xlink="http://www.w3.org/1999/xlink"><style type="text/css">
	.st0{fill:#00538D;}
	.st1{fill:#FFFFFF;}
	.st2{fill:#B1E880;}
	.st3{fill:#FFD488;}
	.st4{fill:#FC7A9F;}
</style><g><path class="st0" d="M92.9,102.4H27.1c-4.2,0-7.6-3.4-7.6-7.6V25.2c0-4.2,3.4-7.6,7.6-7.6h65.7c4.2,0,7.6,3.4,7.6,7.6v69.6   C100.5,99,97.1,102.4,92.9,102.4z"/><g><path class="st1" d="M88.9,34.6H31.1c-1,0-1.9,0.8-1.9,1.9v1.8c0,1,0.8,1.9,1.9,1.9h57.7c1,0,1.9-0.8,1.9-1.9v-1.8    C90.7,35.4,89.9,34.6,88.9,34.6z"/><path class="st1" d="M88.9,57.2H31.1c-1,0-1.9,0.8-1.9,1.9v1.8c0,1,0.8,1.9,1.9,1.9h57.7c1,0,1.9-0.8,1.9-1.9v-1.8    C90.7,58.1,89.9,57.2,88.9,57.2z"/><path class="st1" d="M88.9,79.9H31.1c-1,0-1.9,0.8-1.9,1.9v1.8c0,1,0.8,1.9,1.9,1.9h57.7c1,0,1.9-0.8,1.9-1.9v-1.8    C90.7,80.7,89.9,79.9,88.9,79.9z"/></g><path class="st2" d="M70.3,89.7h-8.1c-1.2,0-2.2-1-2.2-2.2v-9.7c0-1.2,1-2.2,2.2-2.2h8.1c1.2,0,2.2,1,2.2,2.2v9.7   C72.5,88.7,71.5,89.7,70.3,89.7z"/><path class="st3" d="M80.4,44.3h-8.1c-1.2,0-2.2-1-2.2-2.2v-9.7c0-1.2,1-2.2,2.2-2.2h8.1c1.2,0,2.2,1,2.2,2.2v9.7   C82.6,43.4,81.6,44.3,80.4,44.3z"/><path class="st4" d="M42.7,67h8.1c1.2,0,2.2-1,2.2-2.2v-9.7c0-1.2-1-2.2-2.2-2.2h-8.1c-1.2,0-2.2,1-2.2,2.2v9.7   C40.5,66,41.5,67,42.7,67z"/></g></svg>