<?xml version="1.0" ?><svg id="Layer_1" style="enable-background:new 0 0 120 120;" version="1.1" viewBox="0 0 120 120" xml:space="preserve" xmlns="http://www.w3.org/2000/svg" xmlns:xlink="http://www.w3.org/1999/xlink"><style type="text/css">
	.st0{fill:#F4B158;}
	.st1{fill:#FFBC5A;}
	.st2{fill:#E85B6C;}
	.st3{fill:#FFFFFF;}
</style><g><path class="st0" d="M94.7,97.5H19.5c-3.5,0-6.4-2.9-6.4-6.4V39.3c0-3.5,2.9-6.4,6.4-6.4h75.2c3.5,0,6.4,2.9,6.4,6.4v51.8   C101.1,94.6,98.2,97.5,94.7,97.5z"/><path class="st1" d="M100.7,36.5L61.1,70.8c-2.3,2-5.7,2-8,0L13.5,36.5c0.8-2.1,2.8-3.7,5.2-3.7h76.8   C97.9,32.9,99.9,34.4,100.7,36.5z"/><circle class="st2" cx="94.3" cy="35.1" r="12.6"/><g><polygon class="st3" points="97.2,29 97.2,41.3 93.7,41.3 93.7,31.7 91.4,31.7 91.4,29   "/></g></g></svg>